<?xml version="1.0" encoding="utf-8"?>
<!-- Generator: Adobe Illustrator 26.5.0, SVG Export Plug-In . SVG Version: 6.00 Build 0)  -->
<svg version="1.1" id="katman_1" xmlns="http://www.w3.org/2000/svg" xmlns:xlink="http://www.w3.org/1999/xlink" x="0px" y="0px"
	 viewBox="0 0 457.2 143.6" style="enable-background:new 0 0 457.2 143.6;" xml:space="preserve">
<style type="text/css">
	.st0{fill:#FFFFFF;}
	.st1{fill:none;stroke:#010202;stroke-width:2.7543;stroke-opacity:0.25;}
	.st2{fill:#010202;}
</style>
<g>
	<path class="st0" d="M71.6,0.4h314c39.6,0,71.6,32.1,71.6,71.6l0,0c0,39.6-32.1,71.6-71.6,71.6h-314C32,143.6,0,111.5,0,72l0,0
		C0,32.5,32.1,0.4,71.6,0.4z"/>
	<path class="st1" d="M71.6,1.8h314c38.8,0,70.2,31.4,70.2,70.2l0,0c0,38.8-31.4,70.2-70.2,70.2h-314c-38.8,0-70.2-31.4-70.2-70.2
		l0,0C1.4,33.2,32.8,1.8,71.6,1.8z"/>
	<path class="st2" d="M166.3,38.6v16.3h4.9c2.6,0,4.6-0.8,6.2-2.3s2.3-3.5,2.3-5.9s-0.8-4.4-2.3-5.9s-3.6-2.2-6.2-2.2H166.3z
		 M171.2,41c1.8,0,3.3,0.5,4.3,1.6c1.1,1,1.6,2.4,1.6,4.2c0,1.7-0.5,3.1-1.6,4.2s-2.5,1.6-4.3,1.6h-2.4V41
		C168.8,41,171.2,41,171.2,41z"/>
	<path class="st2" d="M188,42.5c-1.7,0-3.2,0.6-4.4,1.8c-1.2,1.2-1.8,2.7-1.8,4.5s0.6,3.3,1.8,4.5s2.6,1.8,4.4,1.9
		c1.7,0,3.2-0.6,4.4-1.8c1.2-1.2,1.8-2.7,1.8-4.5s-0.6-3.3-1.8-4.5C191.1,43.1,189.7,42.5,188,42.5z M188,44.9c1,0,1.9,0.4,2.6,1.2
		c0.7,0.7,1,1.7,1,2.8c0,1.1-0.4,2.1-1,2.8c-0.7,0.7-1.6,1.1-2.6,1.1s-1.9-0.4-2.6-1.1c-0.7-0.8-1-1.7-1-2.8c0-1.1,0.3-2.1,1-2.8
		C186.1,45.3,187,44.9,188,44.9z"/>
	<path class="st2" d="M208.9,50.6l-3.6-8.1h-0.9l-3.5,8.2l-3.1-7.9h-2.7l5.2,12.4h0.9l3.7-8.1l3.7,8.1h0.9l5.1-12.4h-2.7L208.9,50.6
		z"/>
	<path class="st2" d="M222.6,42.5c-1.4,0-2.6,0.5-3.5,1.5v-1.2h-2.3v12.1h2.5v-7.2c0-1.7,1.1-2.8,2.7-2.8c1.5,0,2.5,1.1,2.5,2.8v7.2
		h2.5v-7.6C227,44.4,225.3,42.5,222.6,42.5z"/>
	<path class="st2" d="M230.4,36.4v18.5h2.5V36.4H230.4z"/>
	<path class="st2" d="M241.9,42.5c-1.7,0-3.2,0.6-4.4,1.8c-1.2,1.2-1.8,2.7-1.8,4.5s0.6,3.3,1.8,4.5c1.2,1.2,2.6,1.8,4.4,1.9
		c1.7,0,3.2-0.6,4.4-1.8c1.2-1.2,1.8-2.7,1.8-4.5s-0.6-3.3-1.8-4.5C245.1,43.1,243.6,42.5,241.9,42.5z M242,44.9
		c1,0,1.9,0.4,2.6,1.2c0.7,0.7,1,1.7,1,2.8c0,1.1-0.4,2.1-1,2.8c-0.7,0.7-1.6,1.1-2.6,1.1s-1.9-0.4-2.6-1.1c-0.7-0.8-1-1.7-1-2.8
		c0-1.1,0.3-2.1,1-2.8C240,45.3,240.9,44.9,242,44.9z"/>
	<path class="st2" d="M255.5,42.5c-2.1,0-3.7,0.9-4.9,2.6l1.4,1.5c1-1.2,2.1-1.8,3.2-1.8c1.6,0,2.5,0.9,2.5,2.6v0.8h-3.3
		c-2.6,0-4.3,1.4-4.3,3.5s1.6,3.5,4.1,3.5c1.6,0,2.8-0.5,3.7-1.6V55h2.3v-7.3C260.2,44.3,258.3,42.5,255.5,42.5z M254.7,53.2
		c-1.2,0-2-0.6-2-1.6s0.7-1.5,2.1-1.5h3v0.2C257.7,52,256.4,53.2,254.7,53.2z"/>
	<path class="st2" d="M272.5,44.3c-0.9-1.2-2.2-1.8-3.9-1.8c-1.6,0-3,0.6-4.1,1.8c-1.1,1.2-1.6,2.7-1.6,4.5s0.5,3.3,1.6,4.5
		s2.4,1.8,4.1,1.8c1.8,0,3.2-0.7,4.1-2v1.7h2.3V36.3h-2.5V44.3z M269.1,52.8c-1,0-1.9-0.4-2.6-1.1s-1-1.7-1-2.9c0-1.2,0.3-2.1,1-2.8
		c0.7-0.7,1.5-1.1,2.6-1.1c0.9,0,1.8,0.3,2.5,1s1,1.7,1,2.9C272.6,51.5,271,52.8,269.1,52.8z"/>
	<path class="st2" d="M290.7,42.5c-1.7,0-3.2,0.6-4.4,1.8c-1.2,1.2-1.8,2.7-1.8,4.5s0.6,3.3,1.8,4.5c1.2,1.2,2.6,1.8,4.4,1.9
		c1.7,0,3.2-0.6,4.4-1.8c1.2-1.2,1.8-2.7,1.8-4.5s-0.6-3.3-1.8-4.5C293.8,43.1,292.4,42.5,290.7,42.5z M290.7,44.9
		c1,0,1.9,0.4,2.6,1.2c0.7,0.7,1,1.7,1,2.8c0,1.1-0.4,2.1-1,2.8c-0.7,0.7-1.6,1.1-2.6,1.1s-1.9-0.4-2.6-1.1c-0.7-0.8-1-1.7-1-2.8
		c0-1.1,0.3-2.1,1-2.8C288.8,45.3,289.7,44.9,290.7,44.9z"/>
	<path class="st2" d="M305.5,42.5c-1.4,0-2.6,0.5-3.5,1.5v-1.2h-2.3v12.1h2.5v-7.2c0-1.7,1.1-2.8,2.7-2.8c1.5,0,2.5,1.1,2.5,2.8v7.2
		h2.5v-7.6C309.9,44.4,308.3,42.5,305.5,42.5z"/>
	<path class="st2" d="M325.4,52.8c-1.5,0-2.3-0.5-2.3-2.1V45h3.5v-2.2h-3.5v-3.2h-2.5v3.2h-1.9V45h1.9v5.9c0,2.8,1.6,4.2,4.3,4.2
		c0.6,0,1.3-0.1,2.1-0.3v-2.2C326.2,52.8,325.7,52.8,325.4,52.8z"/>
	<path class="st2" d="M335.3,42.5c-1.4,0-2.5,0.5-3.4,1.5v-7.6h-2.5v18.5h2.5v-7.2c0-1.7,1.1-2.8,2.7-2.8c1.5,0,2.5,1.1,2.5,2.8v7.2
		h2.5v-7.6C339.6,44.5,338,42.5,335.3,42.5z"/>
	<path class="st2" d="M353.8,48.1c0-1.6-0.5-2.9-1.5-4s-2.3-1.6-3.8-1.6c-1.7,0-3.1,0.6-4.3,1.9c-1.2,1.2-1.7,2.7-1.7,4.5
		s0.6,3.3,1.8,4.5c1.2,1.2,2.7,1.8,4.5,1.8s3.3-0.6,4.6-2l-1.2-1.8c-1,1-2.2,1.4-3.4,1.4c-2,0-3.5-1.2-3.8-3.2h8.7
		C353.7,49.1,353.8,48.6,353.8,48.1z M348.3,44.7c1.7,0,3,1.2,3,3H345C345.3,45.9,346.6,44.7,348.3,44.7z"/>
	<path class="st2" d="M192.6,98.4l-13-31.1H178l-12.9,31.1h5l2.1-5.1h13.2l2.1,5.1H192.6z M173.9,89.1l4.9-12.7l4.8,12.7H173.9z"/>
	<path class="st2" d="M208,75.1c-3.2,0-6,1.4-7.6,3.8v-3.2H196v31.1h4.7V95.7c1.7,2.2,4.2,3.2,7.3,3.2c3.1,0,5.7-1.1,7.7-3.4
		c2-2.3,3-5.1,3-8.5s-1-6.2-3-8.5C213.7,76.2,211.1,75.1,208,75.1z M207.2,94.4c-1.8,0-3.4-0.6-4.7-1.9c-1.3-1.3-1.9-3.1-1.9-5.6
		c0-4.9,3-7.4,6.6-7.4c1.9,0,3.5,0.7,4.8,2.1c1.3,1.4,1.9,3.2,1.9,5.4s-0.6,3.9-1.9,5.3C210.7,93.7,209.1,94.4,207.2,94.4z"/>
	<path class="st2" d="M235.1,75.1c-3.2,0-6,1.4-7.6,3.8v-3.2h-4.4v31.1h4.7V95.7c1.7,2.2,4.2,3.2,7.3,3.2c3.1,0,5.7-1.1,7.7-3.4
		c2-2.3,3-5.1,3-8.5s-1-6.2-3-8.5C240.8,76.2,238.2,75.1,235.1,75.1z M234.4,94.4c-1.8,0-3.4-0.6-4.7-1.9c-1.3-1.3-1.9-3.1-1.9-5.6
		c0-4.9,3-7.4,6.6-7.4c1.9,0,3.5,0.7,4.8,2.1c1.3,1.4,1.9,3.2,1.9,5.4s-0.6,3.9-1.9,5.3C237.8,93.7,236.3,94.4,234.4,94.4z"/>
	<path class="st2" d="M271.1,67.3c-2.6,0-4.8,0.8-6.6,2.3c-1.8,1.5-2.7,3.5-2.7,6c0,3.9,2.5,6.4,6.8,8.5l3.2,1.6
		c3.1,1.5,4.3,2.4,4.3,4.6c0,2.6-2,4.3-5.1,4.3c-3,0-5.5-1.6-7.7-4.9l-3.3,2.6c2.3,4.1,6.3,6.6,11.1,6.6c2.8,0,5.2-0.8,7-2.4
		c1.9-1.6,2.8-3.8,2.8-6.4c0-4-2.3-6.4-7-8.7l-3.3-1.6c-3-1.5-4.1-2.3-4.1-4.4c0-2.4,2-3.7,4.4-3.7c2.5,0,4.6,1.3,6.2,3.7l3.3-2.6
		C278.7,69.5,275.2,67.3,271.1,67.3z"/>
	<path class="st2" d="M295.7,94.5c-2.8,0-4.3-1-4.3-3.9V79.8h6.5v-4.2h-6.5v-6h-4.7v6h-3.6v4.2h3.6v11.1c0,5.3,3,7.9,8,7.9
		c1.1,0,2.4-0.2,3.9-0.5v-4.1C297.3,94.4,296.4,94.5,295.7,94.5z"/>
	<path class="st2" d="M312.1,75.1c-3.2,0-6,1.2-8.2,3.4c-2.2,2.3-3.3,5.1-3.3,8.4c0,3.3,1.1,6.2,3.3,8.4c2.2,2.3,4.9,3.4,8.2,3.5
		c3.2,0,5.9-1.2,8.2-3.4c2.3-2.3,3.4-5.1,3.4-8.5c0-3.3-1.2-6.2-3.4-8.4C318.1,76.3,315.3,75.1,312.1,75.1z M312.2,79.6
		c1.9,0,3.5,0.7,4.8,2.2c1.3,1.4,2,3.1,2,5.3c0,2.1-0.7,3.8-2,5.3c-1.3,1.4-2.9,2.1-4.8,2.1c-2,0-3.6-0.7-4.8-2.1
		c-1.3-1.4-1.9-3.2-1.9-5.3s0.6-3.9,1.9-5.3C308.6,80.3,310.2,79.6,312.2,79.6z"/>
	<path class="st2" d="M338.9,75.4c-2.7,0-4.8,1.1-6.4,3.2v-3h-4.4v22.7h4.7V86.2c0-4,2.7-6.3,6.4-6.3h1.4v-4.3
		C340.2,75.5,339.6,75.4,338.9,75.4z"/>
	<path class="st2" d="M363.6,85.5c0-3-1-5.5-2.9-7.5s-4.3-3-7.2-3c-3.2,0-5.9,1.2-8,3.5c-2.2,2.3-3.2,5.1-3.2,8.4
		c0,3.4,1.1,6.2,3.3,8.5c2.2,2.3,5,3.4,8.4,3.4c3.3,0,6.2-1.2,8.7-3.7l-2.2-3.3c-2,1.8-4.1,2.7-6.4,2.7c-3.8,0-6.5-2.2-7.1-6h16.3
		C363.4,87.5,363.6,86.5,363.6,85.5z M353.3,79.2c3.2,0,5.6,2.2,5.6,5.6H347C347.7,81.4,350.2,79.2,353.3,79.2z"/>
	<path class="st2" d="M143.4,70c-0.1-8.7,7.6-12.9,7.9-13.1c-4.3-5.9-11.1-6.7-13.4-6.8c-5.6-0.6-11.1,3.2-14,3.2s-7.4-3.1-12.1-3
		c-6.1,0.1-11.9,3.4-15,8.6c-6.5,10.5-1.7,26,4.6,34.5c3.1,4.2,6.7,8.8,11.5,8.7c4.7-0.2,6.4-2.8,12-2.8c5.6,0,7.2,2.8,12.1,2.7
		c5-0.1,8.2-4.2,11.2-8.4c3.6-4.8,5-9.5,5.1-9.7C153.1,83.8,143.5,80.4,143.4,70z M134.2,44.6c2.5-2.9,4.2-6.9,3.7-11
		c-3.6,0.1-8.2,2.3-10.8,5.2c-2.3,2.5-4.4,6.7-3.8,10.6C127.4,49.7,131.6,47.4,134.2,44.6z"/>
</g>
</svg>
