<?xml version="1.0" encoding="utf-8"?>
<!-- Generator: Adobe Illustrator 23.0.0, SVG Export Plug-In . SVG Version: 6.00 Build 0)  -->
<svg version="1.1" id="Livello_1" xmlns="http://www.w3.org/2000/svg" xmlns:xlink="http://www.w3.org/1999/xlink" x="0px" y="0px"
	 viewBox="0 0 1679.7 398.9" style="enable-background:new 0 0 1679.7 398.9;" xml:space="preserve">
<style type="text/css">
	.st0{fill:#DC2751;}
	.st1{fill:#FFFFFF;}
</style>
<g>
	<path class="st0" d="M207.9,29.6c21.9-28.4,64.4-37.9,96.3-21.7c28.8,13.3,47,45.4,44.3,76.9c-1.1,26.9-20,47.5-31.4,70.5
		c-0.8-0.2-2.5-0.6-3.3-0.8c-7.4-15.3-17.4-29.3-24.7-44.5c5.1-10.5,14.1-20.4,12.6-33c-0.9-16.8-17-31.4-34-29.6
		c-17.4,0.1-32.3,17.7-29.8,35c0.2,8.6,5.6,15.6,9.7,22.8c38.9,67.6,78.1,135,116.9,202.6c40.1-69.7,80.3-139.3,120.6-208.9
		c18,0.2,36-0.1,53.9,0.1c-57.9,101.1-116.4,201.9-174.7,302.8C313.8,313.4,262.6,225.5,212,137.4c-6.3-11.3-14.1-21.9-17.8-34.5
		C186.1,78.2,191.5,49.7,207.9,29.6 M0,98.9c18.2,0,36.5-0.3,54.7,0.1c37.8,67.3,77.3,133.7,115.4,200.8c1.5,2,2.6,6.7,6.1,5.1
		c15.6-26.6,31-53.4,46.2-80.2c9.1,15.8,18.1,31.6,27.3,47.3c-24.6,42.2-49,84.5-73.3,126.9c-0.9-0.1-2.6-0.4-3.4-0.5
		C115.2,298.6,57.5,198.8,0,98.9L0,98.9z"/>
</g>
<g>
	<path class="st1" d="M825.6,36.4c1.8,0,3,0.5,3.7,1.5s0.7,2.4,0,4.1l-61.8,154.3c-0.5,1.4-1.3,2.6-2.5,3.4
		c-1.1,0.9-2.4,1.3-3.7,1.3h-18.2c-1.3,0-2.5-0.4-3.7-1.2c-1.2-0.8-2.1-1.9-2.6-3.4l-22.8-56.9l-22.7,56.8c-0.5,1.4-1.3,2.6-2.5,3.4
		c-1.1,0.9-2.4,1.3-3.7,1.3h-18.3c-2.9,0-5-1.5-6.3-4.6L598.9,42.1c-0.8-1.7-0.8-3.1-0.1-4.1c0.7-1,1.9-1.5,3.7-1.5H627
		c3,0,5,1.5,6.1,4.5l42.6,113.5l43.2-113.6c1-3,2.9-4.5,5.8-4.5h24.5c1.9,0,3.1,0.5,3.8,1.6c0.6,1.1,0.6,2.4-0.1,4l-24.1,60.2
		l22.4,53.5l43.9-114.8c1.1-3,3.1-4.5,5.8-4.5H825.6z"/>
	<path class="st1" d="M846.8,195.7V41.5c0-3.3,1.7-4.9,5.1-4.9h104.7c3.4,0,5.2,1.6,5.2,4.9v19.8c0,1.6-0.5,2.8-1.3,3.7
		c-0.9,0.9-2.2,1.3-3.8,1.3H879v36.5h60.6c3.7,0,5.6,1.7,5.6,5.1v19.6c0,1.6-0.5,2.8-1.5,3.7c-1,0.9-2.4,1.3-4.1,1.3H879V171h78.2
		c2.2,0,3.9,0.5,5.1,1.6c1.2,1.1,1.9,2.6,1.9,4.6l-0.1,18.6c0.1,1.6-0.4,2.8-1.3,3.7c-1,0.9-2.2,1.3-3.8,1.3H851.9
		C848.5,200.8,846.8,199.1,846.8,195.7z"/>
	<path class="st1" d="M987.4,195.7V41.6c0-1.4,0.5-2.6,1.4-3.6c0.9-1,2.1-1.5,3.5-1.5h48.1c16,0,30.3,3.5,43.1,10.6
		c12.7,7,22.7,16.8,29.8,29.3c7.1,12.5,10.7,26.7,10.7,42.4c0,15.6-3.6,29.6-10.7,42.2c-7.2,12.5-17.1,22.3-29.8,29.3
		c-12.7,7-27,10.5-43,10.5h-48.1c-1.4,0-2.6-0.5-3.5-1.5C987.8,198.4,987.4,197.2,987.4,195.7z M1019.4,170.2h21
		c14.6,0,26.8-5,36.6-14.9c9.8-9.9,14.7-22.1,14.7-36.5c0-9.7-2.2-18.6-6.6-26.5c-4.4-7.9-10.6-14.2-18.4-18.8
		c-7.8-4.6-16.6-6.9-26.3-6.9l-21,0.1V170.2z"/>
	<path class="st1" d="M1145.8,195.7V41.6c0-1.4,0.5-2.6,1.4-3.6c0.9-1,2.1-1.5,3.5-1.5h48.1c16,0,30.3,3.5,43.1,10.6
		c12.7,7,22.7,16.8,29.8,29.3c7.1,12.5,10.7,26.7,10.7,42.4c0,15.6-3.6,29.6-10.7,42.2c-7.2,12.5-17.1,22.3-29.8,29.3
		c-12.7,7-27,10.5-43,10.5h-48.1c-1.4,0-2.6-0.5-3.5-1.5C1146.2,198.4,1145.8,197.2,1145.8,195.7z M1177.8,170.2h21
		c14.6,0,26.8-5,36.6-14.9c9.8-9.9,14.7-22.1,14.7-36.5c0-9.7-2.2-18.6-6.6-26.5c-4.4-7.9-10.6-14.2-18.4-18.8
		c-7.8-4.6-16.6-6.9-26.3-6.9l-21,0.1V170.2z"/>
	<path class="st1" d="M1336.2,40.4V197c0,2.5-1.2,3.8-3.7,3.8h-24.6c-2.5,0-3.7-1.3-3.7-3.8V40.4c0-2.5,1.2-3.8,3.7-3.8h24.6
		C1335,36.6,1336.2,37.9,1336.2,40.4z"/>
	<path class="st1" d="M1506.7,36.4c2.5,0,3.7,1.3,3.7,3.8v157c0,2.5-1.2,3.7-3.7,3.7h-23.5c-3,0-5.4-1.4-7.2-4.2l-77-111.7v112.1
		c0,2.5-1.2,3.7-3.7,3.7h-24.6c-2.5,0-3.7-1.2-3.7-3.7v-157c0-2.5,1.2-3.8,3.7-3.8h25.5c2.7,0,5.1,1.5,7.1,4.5l75.1,106.6V40.2
		c0-2.5,1.2-3.8,3.7-3.8H1506.7z"/>
	<path class="st1" d="M1618.4,172c3.7,0,7.9-0.7,12.8-2.2c4.9-1.5,9-3.2,12.4-5.3v-35c0-1.5,0.5-2.7,1.4-3.7c0.9-1,2.1-1.5,3.5-1.5
		h20.8c1.3,0,2.5,0.5,3.4,1.5c0.9,1,1.4,2.2,1.4,3.7v53.9c0,2.5-0.9,4.2-2.6,5.3c-6.4,4.3-14.7,7.9-25,10.9
		c-10.3,3-19.7,4.5-28.2,4.5c-11.8,0-23.1-2.2-33.7-6.6c-10.6-4.4-19.8-10.4-27.4-18c-7.6-7.6-13.7-16.6-18.2-27.2
		c-4.5-10.5-6.7-21.7-6.7-33.5c0-11.7,2.2-22.8,6.7-33.3c4.5-10.5,10.6-19.6,18.2-27.2c7.6-7.6,16.8-13.6,27.4-18
		c10.6-4.4,21.8-6.6,33.7-6.6c8.4,0,17.2,1.5,26.5,4.4c9.3,3,17.2,7.1,23.7,12.3c1,0.8,1.7,1.9,2,3.2c0.3,1.3,0,2.5-0.7,3.5
		l-12.7,19.1c-0.8,1.1-1.8,1.7-3.1,1.9c-1.3,0.1-2.6-0.3-3.8-1.2c-4.4-3.7-9.5-6.6-15.3-8.4c-5.8-1.9-11.3-2.8-16.5-2.8
		c-15.1,0-27.8,5.1-38.2,15.4c-10.4,10.3-15.6,22.8-15.6,37.7c0,14.9,5.2,27.5,15.6,37.8C1590.6,166.9,1603.3,172,1618.4,172z"/>
	<path class="st1" d="M609.7,368.8V251.9c0-1,0.3-1.7,0.8-2.3c0.6-0.6,1.3-0.9,2.3-0.9h34.4c8.9,0,17.3,1.6,25.2,4.7
		c7.8,3.1,14.5,7.4,20.1,12.8c5.6,5.4,9.9,12,13.1,19.6c3.2,7.7,4.8,15.9,4.8,24.6c0,8.7-1.6,16.8-4.8,24.4
		c-3.2,7.6-7.6,14.2-13.1,19.6c-5.5,5.4-12.2,9.7-20,12.8c-7.8,3.1-16.2,4.7-25.2,4.7h-34.4c-1,0-1.7-0.3-2.3-0.9
		C609.9,370.5,609.7,369.8,609.7,368.8z M628.6,353.9h18.6c8.2,0,15.7-1.9,22.5-5.8c6.8-3.9,12.1-9.1,15.9-15.7
		c3.8-6.6,5.7-13.9,5.7-21.9c0-8.2-1.9-15.6-5.7-22.3c-3.8-6.7-9.1-12-15.9-15.8c-6.8-3.9-14.3-5.8-22.5-5.8h-18.6V353.9z"/>
	<path class="st1" d="M822.5,368.8v-117c0-2.1,1.1-3.1,3.2-3.1h77.9c2.3,0,3.4,1,3.4,3.1v11.3c0,2.1-1.1,3.2-3.4,3.2h-62.1v34.4H891
		c2.5,0,3.7,1,3.7,3.1v11.3c0,1-0.3,1.7-1,2.3c-0.7,0.6-1.6,0.8-2.7,0.8h-49.5v36h62.9c1.4,0,2.4,0.3,3.2,1c0.8,0.7,1.2,1.6,1.2,2.9
		l-0.1,10.6c0.1,1-0.2,1.8-0.9,2.4c-0.6,0.6-1.5,0.8-2.5,0.8h-79.6C823.6,372,822.5,370.9,822.5,368.8z"/>
	<path class="st1" d="M1021.6,368.8v-117c0-2.1,1.1-3.1,3.2-3.1h77.9c2.3,0,3.4,1,3.4,3.1v11.3c0,2.1-1.1,3.2-3.4,3.2h-62.1v34.4
		h49.5c2.5,0,3.7,1,3.7,3.1v11.3c0,1-0.3,1.7-1,2.3c-0.7,0.6-1.6,0.8-2.7,0.8h-49.5v36h62.9c1.4,0,2.4,0.3,3.2,1
		c0.8,0.7,1.2,1.6,1.2,2.9l-0.1,10.6c0.1,1-0.2,1.8-0.9,2.4c-0.6,0.6-1.5,0.8-2.5,0.8h-79.6C1022.7,372,1021.6,370.9,1021.6,368.8z"
		/>
	<path class="st1" d="M1258.8,337.7v-86.5c0-1.7,0.9-2.6,2.8-2.6h13.6c1.8,0,2.7,0.9,2.7,2.6V338c0,11.1-3.2,19.9-9.5,26.5
		c-6.4,6.6-14.9,9.9-25.6,9.9c-6.1,0-11.6-1.3-16.7-4c-5-2.6-9-6.4-11.9-11.1c-1.4-1.9-1.4-3.3,0-4.4l9.5-8.7c1.5-1.4,3-1.2,4.3,0.6
		c1.6,2.6,3.7,4.7,6.3,6.2c2.6,1.5,5.4,2.3,8.6,2.3c4.8,0,8.7-1.6,11.6-4.9C1257.3,347.2,1258.8,343,1258.8,337.7z"/>
	<path class="st1" d="M1494.2,368.5c0.5,1.1,0.5,2,0,2.7c-0.5,0.7-1.3,1-2.4,1h-14.2c-1.7,0-2.9-0.9-3.5-2.8l-9.2-24.1h-54.4
		l-9.1,24.1c-0.7,1.9-1.9,2.8-3.7,2.8h-14.1c-1.2,0-2-0.3-2.4-1c-0.4-0.6-0.4-1.5,0-2.7l47.4-117c0.7-1.9,2-2.9,3.9-2.9h10.5
		c0.8,0,1.6,0.3,2.3,0.8c0.7,0.5,1.2,1.2,1.5,2.1L1494.2,368.5z M1416.7,329h42l-21-55.3L1416.7,329z"/>
	<path class="st1" d="M1677.1,248.6c1.2,0,2,0.3,2.4,1c0.4,0.7,0.3,1.6-0.3,2.9l-40.4,70v46.4c0,2.1-1,3.2-3,3.2h-12.8
		c-2.1,0-3.2-1.1-3.2-3.2v-46.4l-40.4-70.1c-0.6-1.2-0.7-2.2-0.3-2.8c0.4-0.6,1.2-1,2.4-1h15c1.5,0,2.7,0.9,3.7,2.7l29.1,51.9
		l29-51.9c1-1.8,2.3-2.7,3.9-2.7H1677.1z"/>
</g>
</svg>
