<?xml version="1.0" encoding="utf-8"?>
<!-- Generator: Adobe Illustrator 26.5.0, SVG Export Plug-In . SVG Version: 6.00 Build 0)  -->
<svg version="1.1" id="katman_1" xmlns="http://www.w3.org/2000/svg" xmlns:xlink="http://www.w3.org/1999/xlink" x="0px" y="0px"
	 viewBox="0 0 457.2 143.6" style="enable-background:new 0 0 457.2 143.6;" xml:space="preserve">
<style type="text/css">
	.st0{fill:#FFFFFF;}
	.st1{fill:none;stroke:#010202;stroke-width:2.7543;stroke-opacity:0.25;}
	.st2{fill:#010202;}
</style>
<path class="st0" d="M71.6,0.5h314c39.6,0,71.6,32.1,71.6,71.6l0,0c0,39.6-32.1,71.6-71.6,71.6h-314C32,143.7,0,111.6,0,72.1l0,0
	C0,32.5,32.1,0.5,71.6,0.5z"/>
<path class="st1" d="M71.6,1.8h314c38.8,0,70.2,31.4,70.2,70.2l0,0c0,38.8-31.4,70.2-70.2,70.2h-314c-38.8,0-70.2-31.4-70.2-70.2
	l0,0C1.4,33.3,32.8,1.8,71.6,1.8z"/>
<path class="st2" d="M117.3,70.6L83.2,38.7c-0.3,0.8-0.6,1.6-0.6,2.7v58.7c0,1.1,0.3,1.9,0.6,2.7L117.3,70.6z"/>
<path class="st2" d="M121.3,70.6l11.4,10.6l12.5-6.6c4-2.1,4-5.6,0-7.7L132.4,60L121.3,70.6z"/>
<path class="st2" d="M119.3,68.7l10.5-10.1L89.7,37.4c-1.7-0.8-3.4-1.1-4.5-0.5L119.3,68.7z"/>
<path class="st2" d="M119.3,72.4l-34.1,32.1c1.1,0.5,2.8,0.3,4.8-0.5l40.3-21.2L119.3,72.4z"/>
<path class="st2" d="M173.5,40.9c-2.3,0-4.3,0.8-5.9,2.4c-1.6,1.6-2.4,3.6-2.4,6s0.8,4.4,2.4,6s3.6,2.4,5.9,2.4
	c3.2,0,5.9-1.7,7.3-4.3v-4.6h-7.4v2.3h4.8v1.8c-1.1,1.7-2.6,2.5-4.7,2.5c-1.7,0-3.1-0.6-4.2-1.7c-1.1-1.2-1.6-2.6-1.6-4.4
	c0-1.7,0.5-3.2,1.6-4.3c1-1.1,2.4-1.7,4.1-1.7c2,0,3.5,0.9,4.7,2.6l1.8-1.6C178.5,42.1,176.3,40.9,173.5,40.9z"/>
<path class="st2" d="M184,41.2v16.3h10.6v-2.3h-8.1V50h5.9v-2.3h-5.9v-4.2h7.8v-2.3H184z"/>
<path class="st2" d="M195.9,41.2v2.3h5.3v14h2.5v-14h5.3v-2.3H195.9z"/>
<path class="st2" d="M216.9,41.2v16.3h2.5V41.2H216.9z"/>
<path class="st2" d="M221.8,41.2v2.3h5.3v14h2.5v-14h5.3v-2.3H221.8z"/>
<path class="st2" d="M250,40.9c-2.3,0-4.3,0.8-5.9,2.4s-2.4,3.6-2.4,6s0.8,4.4,2.4,6s3.5,2.4,5.9,2.4c2.3,0,4.2-0.8,5.8-2.4
	c1.6-1.6,2.4-3.6,2.4-6s-0.8-4.4-2.4-6C254.3,41.7,252.3,40.9,250,40.9z M250,43.3c1.6,0,3,0.6,4,1.7c1.1,1.1,1.6,2.6,1.6,4.3
	c0,1.8-0.5,3.2-1.6,4.3c-1.1,1.1-2.4,1.7-4,1.7s-3-0.6-4-1.7c-1.1-1.2-1.6-2.6-1.6-4.3c0-1.7,0.5-3.2,1.6-4.3
	C247.1,43.9,248.4,43.3,250,43.3z"/>
<path class="st2" d="M271.5,51.9L262,40.6h-0.9v16.6h2.5v-11l9.6,11.3h0.9V40.9h-2.5v11H271.5z"/>
<path class="st2" d="M179.7,69.6c-4.1,0-7.5,1.4-10.3,4.3c-2.8,2.8-4.2,6.3-4.2,10.5s1.4,7.7,4.2,10.5c2.8,2.8,6.2,4.2,10.3,4.2
	c5.5,0,10.4-3,12.8-7.5v-8h-12.9v4.1h8.5v3.1c-1.9,2.9-4.6,4.3-8.2,4.3c-3,0-5.4-1-7.3-3c-1.9-2-2.8-4.6-2.8-7.7
	c0-3,0.9-5.5,2.7-7.5c1.8-2,4.2-3,7.1-3c3.4,0,6.2,1.5,8.2,4.5l3.2-2.7C188.4,71.6,184.6,69.6,179.7,69.6z"/>
<path class="st2" d="M205.1,76.9c-3,0-5.6,1.1-7.7,3.2s-3.1,4.8-3.1,7.9s1,5.8,3.1,7.9s4.6,3.2,7.7,3.2c3,0,5.5-1.1,7.7-3.2
	c2.1-2.2,3.2-4.8,3.2-7.9s-1.1-5.8-3.2-7.9S208.1,76.9,205.1,76.9z M205.2,81.1c1.8,0,3.3,0.7,4.5,2s1.8,2.9,1.8,4.9
	c0,1.9-0.6,3.6-1.8,4.9c-1.2,1.3-2.7,1.9-4.5,1.9s-3.3-0.6-4.5-1.9s-1.8-3-1.8-4.9c0-2,0.6-3.6,1.8-4.9
	C201.8,81.7,203.3,81.1,205.2,81.1z"/>
<path class="st2" d="M228.4,76.9c-3,0-5.6,1.1-7.7,3.2s-3.1,4.8-3.1,7.9s1,5.8,3.1,7.9s4.6,3.2,7.7,3.2c3,0,5.5-1.1,7.7-3.2
	c2.1-2.2,3.2-4.8,3.2-7.9s-1.1-5.8-3.2-7.9S231.4,76.9,228.4,76.9z M228.5,81.1c1.8,0,3.3,0.7,4.5,2s1.8,2.9,1.8,4.9
	c0,1.9-0.6,3.6-1.8,4.9c-1.2,1.3-2.7,1.9-4.5,1.9s-3.3-0.6-4.5-1.9s-1.8-3-1.8-4.9c0-2,0.6-3.6,1.8-4.9
	C225.1,81.7,226.6,81.1,228.5,81.1z"/>
<path class="st2" d="M258.3,80.4c-1.6-2.3-4-3.5-7.2-3.5c-2.9,0-5.2,1-7.1,3s-2.8,4.5-2.8,7.7c0,3.1,1,5.7,2.8,7.7
	c1.9,2,4.2,3,7.1,3c3,0,5.2-1,6.9-3v1.5c0,4-2.4,6.1-6.1,6.1c-2.4,0-4.8-1-7.2-3l-2.4,3.2c2.7,2.7,6,4,9.8,4
	c6.2,0,10.2-3.8,10.2-10.5v-19h-4L258.3,80.4L258.3,80.4z M251.8,94.2c-1.8,0-3.2-0.6-4.5-1.8c-1.2-1.3-1.8-2.9-1.8-4.8
	s0.6-3.5,1.8-4.8c1.2-1.2,2.7-1.8,4.5-1.8c3.4,0,6.2,2.2,6.2,6.5c0,2.2-0.6,3.8-1.8,5C254.9,93.6,253.5,94.2,251.8,94.2z"/>
<path class="st2" d="M266.3,65.9v32.4h4.4V65.9H266.3z"/>
<path class="st2" d="M293.7,86.3c0-2.8-0.9-5.1-2.7-7c-1.8-1.9-4-2.8-6.7-2.8c-3,0-5.5,1.1-7.5,3.2s-3,4.8-3,7.9
	c0,3.2,1,5.8,3.1,7.9s4.7,3.2,7.9,3.2c3.1,0,5.8-1.1,8.2-3.4l-2.1-3.1c-1.8,1.7-3.8,2.5-6,2.5c-3.5,0-6.1-2.1-6.7-5.6h15.2
	C293.6,88.2,293.7,87.2,293.7,86.3z M284.1,80.5c3,0,5.2,2,5.2,5.2h-11.1C278.9,82.5,281.2,80.5,284.1,80.5z"/>
<path class="st2" d="M306.5,69.8v28.5h4.4v-11h5.6c2.8,0,5-0.8,6.8-2.4c1.7-1.6,2.6-3.8,2.6-6.4s-0.9-4.7-2.6-6.3
	c-1.7-1.6-4-2.4-6.8-2.4L306.5,69.8L306.5,69.8z M316.5,73.8c3.1,0,4.9,1.9,4.9,4.7c0,2.8-1.8,4.7-4.9,4.7H311v-9.4L316.5,73.8
	L316.5,73.8z"/>
<path class="st2" d="M328.4,65.9v32.4h4.4V65.9H328.4z"/>
<path class="st2" d="M344.9,76.6c-3.7,0-6.6,1.5-8.6,4.5l2.5,2.7c1.7-2.1,3.6-3.2,5.7-3.2c2.8,0,4.4,1.6,4.4,4.5v1.4h-5.8
	c-4.6,0-7.5,2.4-7.5,6.1s2.8,6.1,7.1,6.1c2.8,0,5-1,6.5-2.9v2.4h4.1V85.4C353.3,79.8,350,76.6,344.9,76.6z M343.6,95.3
	c-2.1,0-3.6-1-3.6-2.8c0-1.7,1.2-2.6,3.6-2.6h5.2v0.4C348.9,93.2,346.5,95.3,343.6,95.3z"/>
<path class="st2" d="M365.5,92.6l-5.9-15.5h-4.7l8.2,20.3l-0.8,2c-1,2.4-2.4,3.1-4.5,3.1c-0.3,0-1.1,0-2.4-0.2v3.8
	c1.1,0.3,2.3,0.4,3.4,0.4c3.5,0,5.8-1.8,7.5-5.8l10-23.6h-4.7L365.5,92.6z"/>
</svg>
